<mxfile host="app.diagrams.net" agent="Mozilla/5.0 (Windows NT 10.0; Win64; x64) AppleWebKit/537.36 (KHTML, like Gecko) Chrome/136.0.0.0 Safari/537.36" version="27.0.4">
  <diagram name="Page-1" id="EGfo3GoyjYr1iyD1TcTY">
    <mxGraphModel dx="872" dy="431" grid="1" gridSize="10" guides="1" tooltips="1" connect="1" arrows="1" fold="1" page="1" pageScale="1" pageWidth="827" pageHeight="1169" math="0" shadow="0">
      <root>
        <mxCell id="0" />
        <mxCell id="1" parent="0" />
        <mxCell id="3PSYXImZFEKC6B3GylKP-1" value="&lt;p data-pm-slice=&quot;1 1 [&amp;quot;ordered_list&amp;quot;,{&amp;quot;spread&amp;quot;:true,&amp;quot;startingNumber&amp;quot;:1,&amp;quot;start&amp;quot;:881,&amp;quot;end&amp;quot;:1381},&amp;quot;regular_list_item&amp;quot;,{&amp;quot;start&amp;quot;:1007,&amp;quot;end&amp;quot;:1143},&amp;quot;list&amp;quot;,{&amp;quot;spread&amp;quot;:false,&amp;quot;start&amp;quot;:1038,&amp;quot;end&amp;quot;:1143},&amp;quot;regular_list_item&amp;quot;,{&amp;quot;start&amp;quot;:1038,&amp;quot;end&amp;quot;:1083}]&quot;&gt;&lt;code&gt;ConfigurationManager&lt;/code&gt;&lt;/p&gt;" style="swimlane;fontStyle=0;childLayout=stackLayout;horizontal=1;startSize=30;horizontalStack=0;resizeParent=1;resizeParentMax=0;resizeLast=0;collapsible=1;marginBottom=0;whiteSpace=wrap;html=1;strokeColor=default;" parent="1" vertex="1">
          <mxGeometry x="380" y="90" width="240" height="170" as="geometry">
            <mxRectangle x="380" y="170" width="60" height="30" as="alternateBounds" />
          </mxGeometry>
        </mxCell>
        <mxCell id="3PSYXImZFEKC6B3GylKP-2" value="&lt;p data-pm-slice=&quot;1 1 [&amp;quot;list&amp;quot;,{&amp;quot;spread&amp;quot;:false,&amp;quot;start&amp;quot;:1055,&amp;quot;end&amp;quot;:1403},&amp;quot;regular_list_item&amp;quot;,{&amp;quot;start&amp;quot;:1093,&amp;quot;end&amp;quot;:1177},&amp;quot;list&amp;quot;,{&amp;quot;spread&amp;quot;:false,&amp;quot;start&amp;quot;:1113,&amp;quot;end&amp;quot;:1177},&amp;quot;regular_list_item&amp;quot;,{&amp;quot;start&amp;quot;:1113,&amp;quot;end&amp;quot;:1177}]&quot;&gt;&lt;code&gt;- instance:&amp;nbsp;&lt;/code&gt;&lt;span style=&quot;background-color: transparent; color: light-dark(rgb(0, 0, 0), rgb(255, 255, 255));&quot;&gt;ConfigurationManager&lt;/span&gt;&lt;/p&gt;" style="text;strokeColor=default;fillColor=none;align=left;verticalAlign=middle;spacingLeft=4;spacingRight=4;overflow=hidden;points=[[0,0.5],[1,0.5]];portConstraint=eastwest;rotatable=0;whiteSpace=wrap;html=1;fontStyle=4" parent="3PSYXImZFEKC6B3GylKP-1" vertex="1">
          <mxGeometry y="30" width="240" height="50" as="geometry" />
        </mxCell>
        <mxCell id="3PSYXImZFEKC6B3GylKP-3" style="edgeStyle=orthogonalEdgeStyle;rounded=0;orthogonalLoop=1;jettySize=auto;html=1;exitX=1;exitY=0.5;exitDx=0;exitDy=0;entryX=0.996;entryY=0.081;entryDx=0;entryDy=0;entryPerimeter=0;fontFamily=Helvetica;fontSize=12;fontColor=default;fontStyle=0;horizontal=1;" parent="3PSYXImZFEKC6B3GylKP-1" source="3PSYXImZFEKC6B3GylKP-2" target="3PSYXImZFEKC6B3GylKP-1" edge="1">
          <mxGeometry relative="1" as="geometry" />
        </mxCell>
        <mxCell id="3PSYXImZFEKC6B3GylKP-4" value="&lt;p data-pm-slice=&quot;1 1 [&amp;quot;list&amp;quot;,{&amp;quot;spread&amp;quot;:false,&amp;quot;start&amp;quot;:562,&amp;quot;end&amp;quot;:914},&amp;quot;regular_list_item&amp;quot;,{&amp;quot;start&amp;quot;:687,&amp;quot;end&amp;quot;:849},&amp;quot;list&amp;quot;,{&amp;quot;spread&amp;quot;:false,&amp;quot;start&amp;quot;:704,&amp;quot;end&amp;quot;:849},&amp;quot;regular_list_item&amp;quot;,{&amp;quot;start&amp;quot;:704,&amp;quot;end&amp;quot;:770}]&quot;&gt;&lt;code style=&quot;background-color: transparent; color: light-dark(rgb(0, 0, 0), rgb(255, 255, 255));&quot;&gt;&lt;/code&gt;&lt;/p&gt;&lt;p data-pm-slice=&quot;1 1 [&amp;quot;ordered_list&amp;quot;,{&amp;quot;spread&amp;quot;:true,&amp;quot;startingNumber&amp;quot;:1,&amp;quot;start&amp;quot;:881,&amp;quot;end&amp;quot;:1381},&amp;quot;regular_list_item&amp;quot;,{&amp;quot;start&amp;quot;:1007,&amp;quot;end&amp;quot;:1143},&amp;quot;list&amp;quot;,{&amp;quot;spread&amp;quot;:false,&amp;quot;start&amp;quot;:1038,&amp;quot;end&amp;quot;:1143},&amp;quot;regular_list_item&amp;quot;,{&amp;quot;start&amp;quot;:1087,&amp;quot;end&amp;quot;:1143}]&quot;&gt;&lt;code&gt;+ loadSettings()&lt;/code&gt;&lt;/p&gt;&lt;p data-pm-slice=&quot;1 1 [&amp;quot;ordered_list&amp;quot;,{&amp;quot;spread&amp;quot;:true,&amp;quot;startingNumber&amp;quot;:1,&amp;quot;start&amp;quot;:881,&amp;quot;end&amp;quot;:1381},&amp;quot;regular_list_item&amp;quot;,{&amp;quot;start&amp;quot;:1007,&amp;quot;end&amp;quot;:1143},&amp;quot;list&amp;quot;,{&amp;quot;spread&amp;quot;:false,&amp;quot;start&amp;quot;:1038,&amp;quot;end&amp;quot;:1143},&amp;quot;regular_list_item&amp;quot;,{&amp;quot;start&amp;quot;:1087,&amp;quot;end&amp;quot;:1143}]&quot;&gt;&lt;code&gt;+ getSetting(key)&lt;/code&gt;&lt;/p&gt;&lt;p data-pm-slice=&quot;1 1 [&amp;quot;list&amp;quot;,{&amp;quot;spread&amp;quot;:false,&amp;quot;start&amp;quot;:562,&amp;quot;end&amp;quot;:914},&amp;quot;regular_list_item&amp;quot;,{&amp;quot;start&amp;quot;:687,&amp;quot;end&amp;quot;:849},&amp;quot;list&amp;quot;,{&amp;quot;spread&amp;quot;:false,&amp;quot;start&amp;quot;:704,&amp;quot;end&amp;quot;:849},&amp;quot;regular_list_item&amp;quot;,{&amp;quot;start&amp;quot;:704,&amp;quot;end&amp;quot;:770}]&quot;&gt;&lt;code style=&quot;background-color: transparent; color: light-dark(rgb(0, 0, 0), rgb(255, 255, 255));&quot;&gt;+&lt;u&gt;getInstance():&lt;/u&gt;&lt;/code&gt;&lt;span style=&quot;font-family: monospace; text-align: center; background-color: transparent; color: light-dark(rgb(0, 0, 0), rgb(255, 255, 255));&quot;&gt;&lt;u&gt;ConfigurationManager&lt;/u&gt;&lt;/span&gt;&lt;/p&gt;" style="text;strokeColor=none;fillColor=none;align=left;verticalAlign=middle;spacingLeft=4;spacingRight=4;overflow=hidden;points=[[0,0.5],[1,0.5]];portConstraint=eastwest;rotatable=0;whiteSpace=wrap;html=1;strokeWidth=14;fontStyle=0" parent="3PSYXImZFEKC6B3GylKP-1" vertex="1">
          <mxGeometry y="80" width="240" height="90" as="geometry" />
        </mxCell>
        <mxCell id="3PSYXImZFEKC6B3GylKP-5" value="Client" style="rounded=0;whiteSpace=wrap;html=1;strokeColor=default;align=center;verticalAlign=middle;fontFamily=Helvetica;fontSize=12;fontColor=default;fontStyle=0;horizontal=1;fillColor=default;" parent="1" vertex="1">
          <mxGeometry x="120" y="170" width="110" height="40" as="geometry" />
        </mxCell>
        <mxCell id="3PSYXImZFEKC6B3GylKP-6" style="edgeStyle=orthogonalEdgeStyle;rounded=0;orthogonalLoop=1;jettySize=auto;html=1;entryX=-0.004;entryY=0.725;entryDx=0;entryDy=0;entryPerimeter=0;fontFamily=Helvetica;fontSize=12;fontColor=default;fontStyle=0;horizontal=1;" parent="1" source="3PSYXImZFEKC6B3GylKP-5" target="3PSYXImZFEKC6B3GylKP-4" edge="1">
          <mxGeometry relative="1" as="geometry" />
        </mxCell>
        <mxCell id="3PSYXImZFEKC6B3GylKP-7" value="" style="endArrow=none;dashed=1;html=1;dashPattern=1 3;strokeWidth=2;rounded=0;fontFamily=Helvetica;fontSize=12;fontColor=default;fontStyle=0;horizontal=1;exitX=0.206;exitY=0;exitDx=0;exitDy=0;exitPerimeter=0;" parent="1" source="3PSYXImZFEKC6B3GylKP-8" edge="1">
          <mxGeometry width="50" height="50" relative="1" as="geometry">
            <mxPoint x="396.4100000000001" y="320" as="sourcePoint" />
            <mxPoint x="418" y="260" as="targetPoint" />
          </mxGeometry>
        </mxCell>
        <mxCell id="3PSYXImZFEKC6B3GylKP-8" value="&lt;div&gt;&lt;font style=&quot;color: rgb(0, 0, 0);&quot;&gt;if (instance == null) {&lt;/font&gt;&lt;/div&gt;&lt;div&gt;&lt;font style=&quot;color: rgb(0, 0, 0);&quot;&gt;&amp;nbsp; &amp;nbsp; instance = new&amp;nbsp;&lt;span style=&quot;font-family: monospace; font-size: 12px; background-color: transparent;&quot;&gt;ConfigurationManager&lt;/span&gt;&lt;span style=&quot;background-color: transparent;&quot;&gt;();&lt;/span&gt;&lt;/font&gt;&lt;/div&gt;&lt;div&gt;&lt;font style=&quot;color: rgb(0, 0, 0);&quot;&gt;}&lt;/font&gt;&lt;/div&gt;&lt;div&gt;&lt;font style=&quot;color: rgb(0, 0, 0);&quot;&gt;return instance;&lt;/font&gt;&lt;/div&gt;" style="shape=note;strokeWidth=2;fontSize=14;size=20;whiteSpace=wrap;html=1;fillColor=#fff2cc;strokeColor=#d6b656;fontColor=#666600;align=center;verticalAlign=middle;fontFamily=Helvetica;fontStyle=0;horizontal=1;" parent="1" vertex="1">
          <mxGeometry x="380" y="340" width="180" height="90" as="geometry" />
        </mxCell>
      </root>
    </mxGraphModel>
  </diagram>
</mxfile>
